<?xml version="1.0" encoding="UTF-8" standalone="no"?>
<!DOCTYPE svg PUBLIC "-//W3C//DTD SVG 1.1//EN"
 "http://www.w3.org/Graphics/SVG/1.1/DTD/svg11.dtd">
<!-- Generated by graphviz version 2.43.0 (0)
 -->
<!-- Title: akka_actor Pages: 1 -->
<svg width="1377pt" height="2284pt"
 viewBox="0.00 0.00 1377.36 2284.00" xmlns="http://www.w3.org/2000/svg" xmlns:xlink="http://www.w3.org/1999/xlink">
<g id="graph0" class="graph" transform="scale(1 1) rotate(0) translate(4 2280)">
<title>akka_actor</title>
<polygon fill="white" stroke="transparent" points="-4,4 -4,-2280 1373.36,-2280 1373.36,4 -4,4"/>
<g id="clust1" class="cluster">
<title>cluster_actor_model</title>
<path fill="lightblue" stroke="black" d="M20,-1110C20,-1110 856.48,-1110 856.48,-1110 862.48,-1110 868.48,-1116 868.48,-1122 868.48,-1122 868.48,-2256 868.48,-2256 868.48,-2262 862.48,-2268 856.48,-2268 856.48,-2268 20,-2268 20,-2268 14,-2268 8,-2262 8,-2256 8,-2256 8,-1122 8,-1122 8,-1116 14,-1110 20,-1110"/>
<text text-anchor="start" x="411.24" y="-2253.8" font-family="Times,serif" font-weight="bold" font-size="14.00">Concepts</text>
</g>
<g id="clust2" class="cluster">
<title>cluster_actor_ref</title>
<path fill="lightblue" stroke="black" d="M407.01,-8C407.01,-8 1326.74,-8 1326.74,-8 1332.74,-8 1338.74,-14 1338.74,-20 1338.74,-20 1338.74,-201 1338.74,-201 1338.74,-207 1332.74,-213 1326.74,-213 1326.74,-213 407.01,-213 407.01,-213 401.01,-213 395.01,-207 395.01,-201 395.01,-201 395.01,-20 395.01,-20 395.01,-14 401.01,-8 407.01,-8"/>
<text text-anchor="start" x="749.37" y="-198.8" font-family="Times,serif" font-weight="bold" font-size="14.00">Actors communicating with one another</text>
</g>
<g id="clust3" class="cluster">
<title>cluster_supervision</title>
<path fill="lightblue" stroke="black" d="M715.99,-221C715.99,-221 1349.36,-221 1349.36,-221 1355.36,-221 1361.36,-227 1361.36,-233 1361.36,-233 1361.36,-1090 1361.36,-1090 1361.36,-1096 1355.36,-1102 1349.36,-1102 1349.36,-1102 715.99,-1102 715.99,-1102 709.99,-1102 703.99,-1096 703.99,-1090 703.99,-1090 703.99,-233 703.99,-233 703.99,-227 709.99,-221 715.99,-221"/>
<text text-anchor="start" x="949.68" y="-1087.8" font-family="Times,serif" font-weight="bold" font-size="14.00">Actor Supervision Strategies</text>
</g>
<!-- Actor \n model -->
<g id="node1" class="node">
<title>Actor \n model</title>
<ellipse fill="white" stroke="blue" cx="43.58" cy="-1630" rx="27.65" ry="27.65"/>
<text text-anchor="middle" x="43.58" y="-1633.8" font-family="Times,serif" font-size="14.00">Actor </text>
<text text-anchor="middle" x="43.58" y="-1618.8" font-family="Times,serif" font-size="14.00"> model</text>
</g>
<!-- Actor -->
<g id="node2" class="node">
<title>Actor</title>
<ellipse fill="white" stroke="blue" cx="159.15" cy="-1630" rx="18" ry="18"/>
<text text-anchor="middle" x="159.15" y="-1626.3" font-family="Times,serif" font-size="14.00">Actor</text>
</g>
<!-- Actor \n model&#45;&gt;Actor -->
<g id="edge1" class="edge">
<title>Actor \n model&#45;&gt;Actor</title>
<path fill="none" stroke="black" d="M71.21,-1630C89.1,-1630 112.62,-1630 130.69,-1630"/>
<polygon fill="black" stroke="black" points="130.87,-1633.5 140.87,-1630 130.87,-1626.5 130.87,-1633.5"/>
<text text-anchor="middle" x="106.15" y="-1648.8" font-family="Times,serif" font-size="14.00">is </text>
<text text-anchor="middle" x="106.15" y="-1633.8" font-family="Times,serif" font-size="14.00"> about</text>
</g>
<!-- State -->
<g id="node3" class="node">
<title>State</title>
<ellipse fill="white" stroke="blue" cx="433.26" cy="-1136" rx="18" ry="18"/>
<text text-anchor="middle" x="433.26" y="-1132.3" font-family="Times,serif" font-size="14.00">State</text>
</g>
<!-- Actor&#45;&gt;State -->
<g id="edge2" class="edge">
<title>Actor&#45;&gt;State</title>
<path fill="none" stroke="black" d="M160.17,-1611.98C160.42,-1530.01 163.38,-1194.89 195.15,-1162 250.51,-1104.7 356.57,-1118.84 405.86,-1129.4"/>
<polygon fill="black" stroke="black" points="405.23,-1132.85 415.75,-1131.64 406.77,-1126.02 405.23,-1132.85"/>
<text text-anchor="middle" x="271.65" y="-1180.8" font-family="Times,serif" font-size="14.00">encapsulates </text>
<text text-anchor="middle" x="271.65" y="-1165.8" font-family="Times,serif" font-size="14.00"> is a container for</text>
</g>
<!-- Behavior -->
<g id="node4" class="node">
<title>Behavior</title>
<ellipse fill="white" stroke="blue" cx="433.26" cy="-1200" rx="27.5" ry="27.5"/>
<text text-anchor="middle" x="433.26" y="-1196.3" font-family="Times,serif" font-size="14.00">Behavior</text>
</g>
<!-- Actor&#45;&gt;Behavior -->
<g id="edge3" class="edge">
<title>Actor&#45;&gt;Behavior</title>
<path fill="none" stroke="black" d="M160.63,-1611.98C162.64,-1540.99 171.56,-1283.12 195.15,-1256 245.26,-1198.42 342.55,-1194.19 395.6,-1196.71"/>
<polygon fill="black" stroke="black" points="395.41,-1200.2 405.59,-1197.29 395.81,-1193.22 395.41,-1200.2"/>
<text text-anchor="middle" x="271.65" y="-1274.8" font-family="Times,serif" font-size="14.00">encapsulates </text>
<text text-anchor="middle" x="271.65" y="-1259.8" font-family="Times,serif" font-size="14.00"> is a container for</text>
</g>
<!-- Children -->
<g id="node5" class="node">
<title>Children</title>
<ellipse fill="white" stroke="blue" cx="433.26" cy="-1272" rx="26.3" ry="26.3"/>
<text text-anchor="middle" x="433.26" y="-1268.3" font-family="Times,serif" font-size="14.00">Children</text>
</g>
<!-- Actor&#45;&gt;Children -->
<g id="edge4" class="edge">
<title>Actor&#45;&gt;Children</title>
<path fill="none" stroke="black" d="M160.54,-1611.76C161.94,-1560.99 168.24,-1419.39 195.15,-1383 244.44,-1316.37 343.81,-1288.34 396.91,-1277.73"/>
<polygon fill="black" stroke="black" points="397.71,-1281.14 406.88,-1275.83 396.4,-1274.26 397.71,-1281.14"/>
<text text-anchor="middle" x="271.65" y="-1401.8" font-family="Times,serif" font-size="14.00">may have </text>
<text text-anchor="middle" x="271.65" y="-1386.8" font-family="Times,serif" font-size="14.00"> is a container for</text>
</g>
<!-- Actor&#45;&gt;Children -->
<g id="edge29" class="edge">
<title>Actor&#45;&gt;Children</title>
<path fill="none" stroke="black" d="M160.79,-1611.83C162.71,-1568.19 169.98,-1459.31 195.15,-1435 244.57,-1387.27 298.96,-1460.96 348.15,-1413 382.37,-1379.64 338.16,-1345.72 366.15,-1307 374.02,-1296.12 386.31,-1288.32 398.17,-1282.89"/>
<polygon fill="black" stroke="black" points="399.6,-1286.09 407.5,-1279.03 396.92,-1279.62 399.6,-1286.09"/>
<text text-anchor="middle" x="271.65" y="-1438.8" font-family="Times,serif" font-size="14.00">Supervise</text>
</g>
<!-- Supervisor \n Strategy -->
<g id="node6" class="node">
<title>Supervisor \n Strategy</title>
<ellipse fill="white" stroke="blue" cx="433.26" cy="-1361" rx="44.6" ry="44.6"/>
<text text-anchor="middle" x="433.26" y="-1364.8" font-family="Times,serif" font-size="14.00">Supervisor </text>
<text text-anchor="middle" x="433.26" y="-1349.8" font-family="Times,serif" font-size="14.00"> Strategy</text>
</g>
<!-- Actor&#45;&gt;Supervisor \n Strategy -->
<g id="edge5" class="edge">
<title>Actor&#45;&gt;Supervisor \n Strategy</title>
<path fill="none" stroke="black" d="M159.59,-1611.79C159.75,-1583.33 164.35,-1528.32 195.15,-1497 244.68,-1446.64 294.41,-1499.84 348.15,-1454 362.68,-1441.61 354.46,-1430.09 366.15,-1415 372.42,-1406.92 380.1,-1399.27 388,-1392.41"/>
<polygon fill="black" stroke="black" points="390.46,-1394.91 395.91,-1385.82 385.98,-1389.53 390.46,-1394.91"/>
<text text-anchor="middle" x="271.65" y="-1500.8" font-family="Times,serif" font-size="14.00">has</text>
</g>
<!-- Reference (Address ?) -->
<g id="node7" class="node">
<title>Reference (Address ?)</title>
<ellipse fill="white" stroke="blue" cx="433.26" cy="-1491" rx="67.2" ry="67.2"/>
<text text-anchor="middle" x="433.26" y="-1487.3" font-family="Times,serif" font-size="14.00">Reference (Address ?)</text>
</g>
<!-- Actor&#45;&gt;Reference (Address ?) -->
<g id="edge6" class="edge">
<title>Actor&#45;&gt;Reference (Address ?)</title>
<path fill="none" stroke="black" d="M165.43,-1612.95C170.74,-1598.5 180.29,-1578.23 195.15,-1566 208.2,-1555.27 293.87,-1529.64 358.52,-1511.33"/>
<polygon fill="black" stroke="black" points="359.62,-1514.66 368.29,-1508.57 357.72,-1507.92 359.62,-1514.66"/>
<text text-anchor="middle" x="271.65" y="-1614.8" font-family="Times,serif" font-size="14.00">is used </text>
<text text-anchor="middle" x="271.65" y="-1599.8" font-family="Times,serif" font-size="14.00"> to represente </text>
<text text-anchor="middle" x="271.65" y="-1584.8" font-family="Times,serif" font-size="14.00"> the actor </text>
<text text-anchor="middle" x="271.65" y="-1569.8" font-family="Times,serif" font-size="14.00"> to outside by</text>
</g>
<!-- Address -->
<g id="node8" class="node">
<title>Address</title>
<ellipse fill="white" stroke="blue" cx="433.26" cy="-1874" rx="24.5" ry="24.5"/>
<text text-anchor="middle" x="433.26" y="-1870.3" font-family="Times,serif" font-size="14.00">Address</text>
</g>
<!-- Actor&#45;&gt;Address -->
<g id="edge7" class="edge">
<title>Actor&#45;&gt;Address</title>
<path fill="none" stroke="black" d="M161.67,-1647.87C165.19,-1684.87 175.16,-1768 195.15,-1787 245.16,-1834.51 290.61,-1774.98 348.15,-1813 360.5,-1821.16 355.14,-1831.12 366.15,-1841 376,-1849.83 388.64,-1856.9 400.23,-1862.2"/>
<polygon fill="black" stroke="black" points="399.05,-1865.51 409.62,-1866.23 401.81,-1859.07 399.05,-1865.51"/>
<text text-anchor="middle" x="271.65" y="-1831.8" font-family="Times,serif" font-size="14.00">has </text>
<text text-anchor="middle" x="271.65" y="-1816.8" font-family="Times,serif" font-size="14.00"> is a container for</text>
</g>
<!-- Unit \n of \n Computation -->
<g id="node9" class="node">
<title>Unit \n of \n Computation</title>
<ellipse fill="white" stroke="blue" cx="433.26" cy="-1630" rx="53.98" ry="53.98"/>
<text text-anchor="middle" x="433.26" y="-1641.3" font-family="Times,serif" font-size="14.00">Unit </text>
<text text-anchor="middle" x="433.26" y="-1626.3" font-family="Times,serif" font-size="14.00"> of </text>
<text text-anchor="middle" x="433.26" y="-1611.3" font-family="Times,serif" font-size="14.00"> Computation</text>
</g>
<!-- Actor&#45;&gt;Unit \n of \n Computation -->
<g id="edge8" class="edge">
<title>Actor&#45;&gt;Unit \n of \n Computation</title>
<path fill="none" stroke="black" d="M177.18,-1630C214.81,-1630 306.72,-1630 369.29,-1630"/>
<polygon fill="black" stroke="black" points="369.45,-1633.5 379.45,-1630 369.45,-1626.5 369.45,-1633.5"/>
<text text-anchor="middle" x="271.65" y="-1633.8" font-family="Times,serif" font-size="14.00">is</text>
</g>
<!-- Mailbox -->
<g id="node10" class="node">
<title>Mailbox</title>
<ellipse fill="white" stroke="blue" cx="433.26" cy="-1728" rx="25.7" ry="25.7"/>
<text text-anchor="middle" x="433.26" y="-1724.3" font-family="Times,serif" font-size="14.00">Mailbox</text>
</g>
<!-- Actor&#45;&gt;Mailbox -->
<g id="edge9" class="edge">
<title>Actor&#45;&gt;Mailbox</title>
<path fill="none" stroke="black" d="M175.19,-1638.94C181.27,-1642.35 188.42,-1646.1 195.15,-1649 260.86,-1677.29 280.34,-1676.23 348.15,-1699 364.97,-1704.65 383.62,-1711.06 399.08,-1716.42"/>
<polygon fill="black" stroke="black" points="398.13,-1719.8 408.73,-1719.77 400.43,-1713.19 398.13,-1719.8"/>
<text text-anchor="middle" x="271.65" y="-1717.8" font-family="Times,serif" font-size="14.00">associated </text>
<text text-anchor="middle" x="271.65" y="-1702.8" font-family="Times,serif" font-size="14.00"> with</text>
</g>
<!-- Messages -->
<g id="node11" class="node">
<title>Messages</title>
<ellipse fill="white" stroke="blue" cx="433.26" cy="-1802" rx="29.9" ry="29.9"/>
<text text-anchor="middle" x="433.26" y="-1798.3" font-family="Times,serif" font-size="14.00">Messages</text>
</g>
<!-- Actor&#45;&gt;Messages -->
<g id="edge10" class="edge">
<title>Actor&#45;&gt;Messages</title>
<path fill="none" stroke="black" d="M161.24,-1648.02C163.61,-1670.52 171.15,-1708.54 195.15,-1729 247.76,-1773.85 282.89,-1734.2 348.15,-1757 365.63,-1763.11 383.88,-1772.46 398.9,-1781.06"/>
<polygon fill="black" stroke="black" points="397.4,-1784.24 407.8,-1786.29 400.94,-1778.21 397.4,-1784.24"/>
<text text-anchor="middle" x="271.65" y="-1775.8" font-family="Times,serif" font-size="14.00">communicat </text>
<text text-anchor="middle" x="271.65" y="-1760.8" font-family="Times,serif" font-size="14.00"> through</text>
</g>
<!-- Message \n Delivery \n Mechanism -->
<g id="node12" class="node">
<title>Message \n Delivery \n Mechanism</title>
<ellipse fill="white" stroke="blue" cx="433.26" cy="-1966" rx="48.58" ry="48.58"/>
<text text-anchor="middle" x="433.26" y="-1977.3" font-family="Times,serif" font-size="14.00">Message </text>
<text text-anchor="middle" x="433.26" y="-1962.3" font-family="Times,serif" font-size="14.00"> Delivery </text>
<text text-anchor="middle" x="433.26" y="-1947.3" font-family="Times,serif" font-size="14.00"> Mechanism</text>
</g>
<!-- Actor&#45;&gt;Message \n Delivery \n Mechanism -->
<g id="edge12" class="edge">
<title>Actor&#45;&gt;Message \n Delivery \n Mechanism</title>
<path fill="none" stroke="black" d="M160.88,-1648.07C163.6,-1711.49 174.13,-1921.2 195.15,-1942 241.72,-1988.06 321.35,-1986.33 375.36,-1978.31"/>
<polygon fill="black" stroke="black" points="376.14,-1981.73 385.46,-1976.69 375.04,-1974.81 376.14,-1981.73"/>
<text text-anchor="middle" x="271.65" y="-1985.8" font-family="Times,serif" font-size="14.00">has</text>
</g>
<!-- ActorSystem -->
<g id="node16" class="node">
<title>ActorSystem</title>
<ellipse fill="white" stroke="blue" cx="433.26" cy="-2072" rx="39.7" ry="39.7"/>
<text text-anchor="middle" x="433.26" y="-2068.3" font-family="Times,serif" font-size="14.00">ActorSystem</text>
</g>
<!-- Actor&#45;&gt;ActorSystem -->
<g id="edge16" class="edge">
<title>Actor&#45;&gt;ActorSystem</title>
<path fill="none" stroke="black" d="M160.7,-1648.31C162.96,-1719.27 172.59,-1973.49 195.15,-2001 240.85,-2056.71 328.42,-2069.9 383.39,-2072.37"/>
<polygon fill="black" stroke="black" points="383.48,-2075.88 393.6,-2072.72 383.72,-2068.88 383.48,-2075.88"/>
<text text-anchor="middle" x="271.65" y="-2102.8" font-family="Times,serif" font-size="14.00">naturally </text>
<text text-anchor="middle" x="271.65" y="-2087.8" font-family="Times,serif" font-size="14.00"> form </text>
<text text-anchor="middle" x="271.65" y="-2072.8" font-family="Times,serif" font-size="14.00"> hierarchies</text>
</g>
<!-- Three \n fundamental \n actions -->
<g id="node18" class="node">
<title>Three \n fundamental \n actions</title>
<ellipse fill="white" stroke="blue" cx="433.26" cy="-2183" rx="53.98" ry="53.98"/>
<text text-anchor="middle" x="433.26" y="-2194.3" font-family="Times,serif" font-size="14.00">Three </text>
<text text-anchor="middle" x="433.26" y="-2179.3" font-family="Times,serif" font-size="14.00"> fundamental </text>
<text text-anchor="middle" x="433.26" y="-2164.3" font-family="Times,serif" font-size="14.00"> actions</text>
</g>
<!-- Actor&#45;&gt;Three \n fundamental \n actions -->
<g id="edge19" class="edge">
<title>Actor&#45;&gt;Three \n fundamental \n actions</title>
<path fill="none" stroke="black" d="M160.24,-1648.11C160.78,-1732.09 164.84,-2081.07 195.15,-2118 236.91,-2168.85 314.35,-2182.03 369.36,-2184.47"/>
<polygon fill="black" stroke="black" points="369.25,-2187.97 379.36,-2184.81 369.48,-2180.97 369.25,-2187.97"/>
<text text-anchor="middle" x="271.65" y="-2185.8" font-family="Times,serif" font-size="14.00">can do</text>
</g>
<!-- Reference -->
<g id="node22" class="node">
<title>Reference</title>
<ellipse fill="white" stroke="blue" cx="433.26" cy="-152" rx="30" ry="30"/>
<text text-anchor="middle" x="433.26" y="-148.3" font-family="Times,serif" font-size="14.00">Reference</text>
</g>
<!-- Actor&#45;&gt;Reference -->
<g id="edge23" class="edge">
<title>Actor&#45;&gt;Reference</title>
<path fill="none" stroke="black" d="M160.11,-1611.99C160.19,-1543.13 162.79,-1290.1 195.15,-1085 250.95,-731.39 379.37,-316.33 419.82,-190.22"/>
<polygon fill="black" stroke="black" points="423.18,-191.21 422.91,-180.62 416.51,-189.06 423.18,-191.21"/>
<text text-anchor="middle" x="271.65" y="-1103.8" font-family="Times,serif" font-size="14.00">Most actor communication </text>
<text text-anchor="middle" x="271.65" y="-1088.8" font-family="Times,serif" font-size="14.00"> is done using references</text>
</g>
<!-- Default -->
<g id="node28" class="node">
<title>Default</title>
<ellipse fill="white" stroke="blue" cx="774.92" cy="-890" rx="22.6" ry="22.6"/>
<text text-anchor="middle" x="774.92" y="-886.3" font-family="Times,serif" font-size="14.00">Default</text>
</g>
<!-- Supervisor \n Strategy&#45;&gt;Default -->
<g id="edge30" class="edge">
<title>Supervisor \n Strategy&#45;&gt;Default</title>
<path fill="none" stroke="black" d="M471.9,-1338.5C482.88,-1330.03 493.7,-1319.4 500.36,-1307 538.2,-1236.57 479.96,-1198.13 518.36,-1128 559.99,-1051.96 622.49,-1078.61 671.36,-1007 686.81,-984.36 673.14,-970.11 689.36,-948 703.62,-928.56 726.45,-913.46 744.79,-903.55"/>
<polygon fill="black" stroke="black" points="746.63,-906.54 753.91,-898.84 743.42,-900.32 746.63,-906.54"/>
</g>
<!-- Crashed \n Children -->
<g id="node37" class="node">
<title>Crashed \n Children</title>
<ellipse fill="white" stroke="blue" cx="774.92" cy="-813" rx="36.54" ry="36.54"/>
<text text-anchor="middle" x="774.92" y="-816.8" font-family="Times,serif" font-size="14.00">Crashed </text>
<text text-anchor="middle" x="774.92" y="-801.8" font-family="Times,serif" font-size="14.00"> Children</text>
</g>
<!-- Supervisor \n Strategy&#45;&gt;Crashed \n Children -->
<g id="edge41" class="edge">
<title>Supervisor \n Strategy&#45;&gt;Crashed \n Children</title>
<path fill="none" stroke="black" d="M472.2,-1338.66C483.19,-1330.2 493.95,-1319.53 500.36,-1307 530.78,-1247.54 488.89,-1066.93 518.36,-1007 562.57,-917.08 670.82,-857.75 731.29,-830.41"/>
<polygon fill="black" stroke="black" points="732.85,-833.55 740.57,-826.3 730.01,-827.15 732.85,-833.55"/>
</g>
<!-- OneForOneStrategy -->
<g id="node38" class="node">
<title>OneForOneStrategy</title>
<ellipse fill="white" stroke="blue" cx="774.92" cy="-698" rx="59.9" ry="59.9"/>
<text text-anchor="middle" x="774.92" y="-694.3" font-family="Times,serif" font-size="14.00">OneForOneStrategy</text>
</g>
<!-- Supervisor \n Strategy&#45;&gt;OneForOneStrategy -->
<g id="edge42" class="edge">
<title>Supervisor \n Strategy&#45;&gt;OneForOneStrategy</title>
<path fill="none" stroke="black" d="M472,-1339C483.12,-1330.5 494.01,-1319.73 500.36,-1307 544.95,-1217.65 468.24,-944.37 518.36,-858 559.75,-786.66 647.01,-742.52 707.99,-719.13"/>
<polygon fill="black" stroke="black" points="709.4,-722.34 717.54,-715.55 706.95,-715.78 709.4,-722.34"/>
</g>
<!-- AllForOneStrategy -->
<g id="node39" class="node">
<title>AllForOneStrategy</title>
<ellipse fill="white" stroke="blue" cx="774.92" cy="-1014" rx="57.4" ry="57.4"/>
<text text-anchor="middle" x="774.92" y="-1010.3" font-family="Times,serif" font-size="14.00">AllForOneStrategy</text>
</g>
<!-- Supervisor \n Strategy&#45;&gt;AllForOneStrategy -->
<g id="edge43" class="edge">
<title>Supervisor \n Strategy&#45;&gt;AllForOneStrategy</title>
<path fill="none" stroke="black" d="M468.97,-1334.1C479.32,-1325.7 490.51,-1316.21 500.36,-1307 523.91,-1284.96 656.8,-1141.19 728.33,-1063.55"/>
<polygon fill="black" stroke="black" points="731.28,-1065.52 735.48,-1055.8 726.13,-1060.78 731.28,-1065.52"/>
</g>
<!-- Address&#45;&gt;Actor -->
<g id="edge11" class="edge">
<title>Address&#45;&gt;Actor</title>
<path fill="none" stroke="black" d="M408.26,-1871.64C349.52,-1865.75 202.78,-1850.38 195.15,-1843 169.26,-1817.94 162.52,-1710.32 160.77,-1658.33"/>
<polygon fill="black" stroke="black" points="164.26,-1658.02 160.46,-1648.13 157.26,-1658.23 164.26,-1658.02"/>
<text text-anchor="middle" x="271.65" y="-1928.8" font-family="Times,serif" font-size="14.00">is </text>
<text text-anchor="middle" x="271.65" y="-1913.8" font-family="Times,serif" font-size="14.00"> the entry point </text>
<text text-anchor="middle" x="271.65" y="-1898.8" font-family="Times,serif" font-size="14.00"> for </text>
<text text-anchor="middle" x="271.65" y="-1883.8" font-family="Times,serif" font-size="14.00"> communication </text>
<text text-anchor="middle" x="271.65" y="-1868.8" font-family="Times,serif" font-size="14.00"> with that actor</text>
</g>
<!-- at&#45;most&#45;once \n delivery -->
<g id="node13" class="node">
<title>at&#45;most&#45;once \n delivery</title>
<ellipse fill="white" stroke="blue" cx="774.92" cy="-1481" rx="53.98" ry="53.98"/>
<text text-anchor="middle" x="774.92" y="-1484.8" font-family="Times,serif" font-size="14.00">at&#45;most&#45;once </text>
<text text-anchor="middle" x="774.92" y="-1469.8" font-family="Times,serif" font-size="14.00"> delivery</text>
</g>
<!-- Message \n Delivery \n Mechanism&#45;&gt;at&#45;most&#45;once \n delivery -->
<g id="edge13" class="edge">
<title>Message \n Delivery \n Mechanism&#45;&gt;at&#45;most&#45;once \n delivery</title>
<path fill="none" stroke="black" d="M474.64,-1939.43C484.77,-1930.68 494.43,-1920.06 500.36,-1908 528.17,-1851.45 484.85,-1678.37 518.36,-1625 562.03,-1555.44 652.1,-1516.37 712.78,-1496.99"/>
<polygon fill="black" stroke="black" points="714.11,-1500.24 722.62,-1493.93 712.04,-1493.55 714.11,-1500.24"/>
<text text-anchor="middle" x="594.86" y="-1628.8" font-family="Times,serif" font-size="14.00">may be</text>
</g>
<!-- at&#45;least&#45;once \n delivery -->
<g id="node14" class="node">
<title>at&#45;least&#45;once \n delivery</title>
<ellipse fill="white" stroke="blue" cx="774.92" cy="-1604" rx="51.74" ry="51.74"/>
<text text-anchor="middle" x="774.92" y="-1607.8" font-family="Times,serif" font-size="14.00">at&#45;least&#45;once </text>
<text text-anchor="middle" x="774.92" y="-1592.8" font-family="Times,serif" font-size="14.00"> delivery</text>
</g>
<!-- Message \n Delivery \n Mechanism&#45;&gt;at&#45;least&#45;once \n delivery -->
<g id="edge14" class="edge">
<title>Message \n Delivery \n Mechanism&#45;&gt;at&#45;least&#45;once \n delivery</title>
<path fill="none" stroke="black" d="M474.17,-1939.19C484.3,-1930.44 494.07,-1919.87 500.36,-1908 530.75,-1850.61 483.38,-1817.71 518.36,-1763 564.35,-1691.06 655.75,-1646.18 715.85,-1623.12"/>
<polygon fill="black" stroke="black" points="717.45,-1626.26 725.59,-1619.47 714.99,-1619.71 717.45,-1626.26"/>
<text text-anchor="middle" x="594.86" y="-1766.8" font-family="Times,serif" font-size="14.00">may be</text>
</g>
<!-- exactly&#45;once \n delivery -->
<g id="node15" class="node">
<title>exactly&#45;once \n delivery</title>
<ellipse fill="white" stroke="blue" cx="774.92" cy="-1358" rx="51.74" ry="51.74"/>
<text text-anchor="middle" x="774.92" y="-1361.8" font-family="Times,serif" font-size="14.00">exactly&#45;once </text>
<text text-anchor="middle" x="774.92" y="-1346.8" font-family="Times,serif" font-size="14.00"> delivery</text>
</g>
<!-- Message \n Delivery \n Mechanism&#45;&gt;exactly&#45;once \n delivery -->
<g id="edge15" class="edge">
<title>Message \n Delivery \n Mechanism&#45;&gt;exactly&#45;once \n delivery</title>
<path fill="none" stroke="black" d="M474.45,-1939.8C484.71,-1931 494.48,-1920.25 500.36,-1908 520.22,-1866.58 493.92,-1533.89 518.36,-1495 562.01,-1425.56 653.61,-1389.01 714.45,-1371.62"/>
<polygon fill="black" stroke="black" points="715.61,-1374.93 724.31,-1368.89 713.74,-1368.19 715.61,-1374.93"/>
<text text-anchor="middle" x="594.86" y="-1498.8" font-family="Times,serif" font-size="14.00">may be</text>
</g>
<!-- 1…N Threads -->
<g id="node17" class="node">
<title>1…N Threads</title>
<ellipse fill="white" stroke="blue" cx="774.92" cy="-1717" rx="42.8" ry="42.8"/>
<text text-anchor="middle" x="774.92" y="-1713.3" font-family="Times,serif" font-size="14.00">1…N Threads</text>
</g>
<!-- ActorSystem&#45;&gt;1…N Threads -->
<g id="edge17" class="edge">
<title>ActorSystem&#45;&gt;1…N Threads</title>
<path fill="none" stroke="black" d="M468.86,-2054.07C480.57,-2046.34 492.64,-2036.23 500.36,-2024 523.77,-1986.92 497.18,-1965.39 518.36,-1927 568.35,-1836.4 606.9,-1831.51 689.36,-1769 701.52,-1759.78 715.39,-1750.72 728.33,-1742.8"/>
<polygon fill="black" stroke="black" points="730.34,-1745.68 737.1,-1737.52 726.73,-1739.68 730.34,-1745.68"/>
<text text-anchor="middle" x="594.86" y="-1960.8" font-family="Times,serif" font-size="14.00">is </text>
<text text-anchor="middle" x="594.86" y="-1945.8" font-family="Times,serif" font-size="14.00"> a heavyweight </text>
<text text-anchor="middle" x="594.86" y="-1930.8" font-family="Times,serif" font-size="14.00"> structure</text>
</g>
<!-- ActorSystem&#45;&gt;1…N Threads -->
<g id="edge18" class="edge">
<title>ActorSystem&#45;&gt;1…N Threads</title>
<path fill="none" stroke="black" d="M467.65,-2051.67C478.84,-2043.88 490.88,-2034.35 500.36,-2024 510.86,-2012.53 505.41,-2002.61 518.36,-1994 575.57,-1955.97 624.12,-2021.88 671.36,-1972 702.5,-1939.12 665.54,-1807.52 689.36,-1769 697.84,-1755.29 711.41,-1744.66 725.21,-1736.69"/>
<polygon fill="black" stroke="black" points="727.11,-1739.64 734.27,-1731.83 723.8,-1733.47 727.11,-1739.64"/>
<text text-anchor="middle" x="594.86" y="-1997.8" font-family="Times,serif" font-size="14.00">allocates</text>
</g>
<!-- a finite \n number of messages \n to Actors it knows -->
<g id="node19" class="node">
<title>a finite \n number of messages \n to Actors it knows</title>
<ellipse fill="white" stroke="blue" cx="774.92" cy="-2040" rx="85.62" ry="85.62"/>
<text text-anchor="middle" x="774.92" y="-2051.3" font-family="Times,serif" font-size="14.00">a finite </text>
<text text-anchor="middle" x="774.92" y="-2036.3" font-family="Times,serif" font-size="14.00"> number of messages </text>
<text text-anchor="middle" x="774.92" y="-2021.3" font-family="Times,serif" font-size="14.00"> to Actors it knows</text>
</g>
<!-- Three \n fundamental \n actions&#45;&gt;a finite \n number of messages \n to Actors it knows -->
<g id="edge20" class="edge">
<title>Three \n fundamental \n actions&#45;&gt;a finite \n number of messages \n to Actors it knows</title>
<path fill="none" stroke="black" d="M484.62,-2166.94C533.21,-2150.88 608.46,-2124.52 671.36,-2096 677.84,-2093.06 684.46,-2089.88 691.08,-2086.57"/>
<polygon fill="black" stroke="black" points="692.75,-2089.65 700.08,-2082 689.58,-2083.41 692.75,-2089.65"/>
<text text-anchor="start" x="581.36" y="-2158.8" font-family="Times,serif" font-weight="bold" font-size="14.00">send</text>
</g>
<!-- a finite \n number of \n new Actors -->
<g id="node20" class="node">
<title>a finite \n number of \n new Actors</title>
<ellipse fill="white" stroke="blue" cx="774.92" cy="-2190" rx="46.84" ry="46.84"/>
<text text-anchor="middle" x="774.92" y="-2201.3" font-family="Times,serif" font-size="14.00">a finite </text>
<text text-anchor="middle" x="774.92" y="-2186.3" font-family="Times,serif" font-size="14.00"> number of </text>
<text text-anchor="middle" x="774.92" y="-2171.3" font-family="Times,serif" font-size="14.00"> new Actors</text>
</g>
<!-- Three \n fundamental \n actions&#45;&gt;a finite \n number of \n new Actors -->
<g id="edge21" class="edge">
<title>Three \n fundamental \n actions&#45;&gt;a finite \n number of \n new Actors</title>
<path fill="none" stroke="black" d="M487.33,-2184.09C549.98,-2185.38 653.73,-2187.52 717.72,-2188.84"/>
<polygon fill="black" stroke="black" points="717.95,-2192.35 728.02,-2189.05 718.1,-2185.35 717.95,-2192.35"/>
<text text-anchor="start" x="576.86" y="-2191.8" font-family="Times,serif" font-weight="bold" font-size="14.00">create</text>
</g>
<!-- the behavior \n to be applied \n to the next message -->
<g id="node21" class="node">
<title>the behavior \n to be applied \n to the next message</title>
<ellipse fill="white" stroke="blue" cx="774.92" cy="-1857" rx="79.39" ry="79.39"/>
<text text-anchor="middle" x="774.92" y="-1868.3" font-family="Times,serif" font-size="14.00">the behavior </text>
<text text-anchor="middle" x="774.92" y="-1853.3" font-family="Times,serif" font-size="14.00"> to be applied </text>
<text text-anchor="middle" x="774.92" y="-1838.3" font-family="Times,serif" font-size="14.00"> to the next message</text>
</g>
<!-- Three \n fundamental \n actions&#45;&gt;the behavior \n to be applied \n to the next message -->
<g id="edge22" class="edge">
<title>Three \n fundamental \n actions&#45;&gt;the behavior \n to be applied \n to the next message</title>
<path fill="none" stroke="black" d="M475.6,-2149.42C484.55,-2140.81 493.4,-2131.11 500.36,-2121 512.34,-2103.6 503.48,-2092 518.36,-2077 570.27,-2024.68 622.94,-2068.58 671.36,-2013 691.9,-1989.43 674.04,-1972.25 689.36,-1945 694.68,-1935.53 701.27,-1926.31 708.4,-1917.64"/>
<polygon fill="black" stroke="black" points="711.24,-1919.71 715.08,-1909.84 705.92,-1915.16 711.24,-1919.71"/>
<text text-anchor="start" x="567.36" y="-2081.8" font-family="Times,serif" font-weight="bold" font-size="14.00">designate</text>
</g>
<!-- ActorRef -->
<g id="node23" class="node">
<title>ActorRef</title>
<ellipse fill="white" stroke="blue" cx="774.92" cy="-154" rx="28.1" ry="28.1"/>
<text text-anchor="middle" x="774.92" y="-150.3" font-family="Times,serif" font-size="14.00">ActorRef</text>
</g>
<!-- Reference&#45;&gt;ActorRef -->
<g id="edge24" class="edge">
<title>Reference&#45;&gt;ActorRef</title>
<path fill="none" stroke="black" d="M463.51,-152.17C525.07,-152.53 667.92,-153.38 736.22,-153.78"/>
<polygon fill="black" stroke="black" points="736.5,-157.28 746.52,-153.84 736.54,-150.28 736.5,-157.28"/>
<text text-anchor="middle" x="594.86" y="-171.8" font-family="Times,serif" font-size="14.00">Most actor communication </text>
<text text-anchor="middle" x="594.86" y="-156.8" font-family="Times,serif" font-size="14.00"> is done using references</text>
</g>
<!-- Actor 1 -->
<g id="node24" class="node">
<title>Actor 1</title>
<ellipse fill="white" stroke="blue" cx="433.26" cy="-67" rx="23.2" ry="23.2"/>
<text text-anchor="middle" x="433.26" y="-63.3" font-family="Times,serif" font-size="14.00">Actor 1</text>
</g>
<!-- Actor 2 \n Mailbox -->
<g id="node25" class="node">
<title>Actor 2 \n Mailbox</title>
<ellipse fill="white" stroke="blue" cx="774.92" cy="-52" rx="36.12" ry="36.12"/>
<text text-anchor="middle" x="774.92" y="-55.8" font-family="Times,serif" font-size="14.00">Actor 2 </text>
<text text-anchor="middle" x="774.92" y="-40.8" font-family="Times,serif" font-size="14.00"> Mailbox</text>
</g>
<!-- Actor 1&#45;&gt;Actor 2 \n Mailbox -->
<g id="edge25" class="edge">
<title>Actor 1&#45;&gt;Actor 2 \n Mailbox</title>
<path fill="none" stroke="black" d="M456.54,-66.02C511.55,-63.59 654.62,-57.27 728.42,-54.01"/>
<polygon fill="black" stroke="black" points="728.95,-57.49 738.79,-53.55 728.64,-50.5 728.95,-57.49"/>
<text text-anchor="middle" x="594.86" y="-66.8" font-family="Times,serif" font-size="14.00">Message</text>
</g>
<!-- Actor 2 -->
<g id="node26" class="node">
<title>Actor 2</title>
<ellipse fill="white" stroke="blue" cx="1030.73" cy="-59" rx="23.2" ry="23.2"/>
<text text-anchor="middle" x="1030.73" y="-55.3" font-family="Times,serif" font-size="14.00">Actor 2</text>
</g>
<!-- Actor 2 \n Mailbox&#45;&gt;Actor 2 -->
<g id="edge28" class="edge">
<title>Actor 2 \n Mailbox&#45;&gt;Actor 2</title>
<path fill="none" stroke="black" d="M811.21,-52.97C860.6,-54.34 949.62,-56.79 997.38,-58.11"/>
<polygon fill="black" stroke="black" points="997.38,-61.61 1007.47,-58.39 997.57,-54.61 997.38,-61.61"/>
<text text-anchor="middle" x="902.98" y="-60.8" font-family="Times,serif" font-size="14.00">Message</text>
</g>
<!-- Actor 1 \n Mailbox -->
<g id="node27" class="node">
<title>Actor 1 \n Mailbox</title>
<ellipse fill="white" stroke="blue" cx="1294.67" cy="-93" rx="36.12" ry="36.12"/>
<text text-anchor="middle" x="1294.67" y="-96.8" font-family="Times,serif" font-size="14.00">Actor 1 </text>
<text text-anchor="middle" x="1294.67" y="-81.8" font-family="Times,serif" font-size="14.00"> Mailbox</text>
</g>
<!-- Actor 2&#45;&gt;Actor 1 \n Mailbox -->
<g id="edge26" class="edge">
<title>Actor 2&#45;&gt;Actor 1 \n Mailbox</title>
<path fill="none" stroke="black" d="M1054.06,-61.9C1097.04,-67.48 1192,-79.8 1248.62,-87.15"/>
<polygon fill="black" stroke="black" points="1248.36,-90.65 1258.73,-88.46 1249.26,-83.71 1248.36,-90.65"/>
<text text-anchor="middle" x="1175.98" y="-86.8" font-family="Times,serif" font-size="14.00">Message</text>
</g>
<!-- Actor 1 \n Mailbox&#45;&gt;Actor 1 -->
<g id="edge27" class="edge">
<title>Actor 1 \n Mailbox&#45;&gt;Actor 1</title>
<path fill="none" stroke="black" d="M1258.71,-98.03C1245.92,-99.64 1231.33,-101.21 1217.98,-102 1180.72,-104.21 1171.32,-102.21 1133.98,-102 936.36,-100.89 886.74,-106.75 689.36,-97 613.16,-93.23 593.99,-92.04 518.36,-82 501.04,-79.7 481.85,-76.34 466.18,-73.38"/>
<polygon fill="black" stroke="black" points="466.44,-69.87 455.96,-71.42 465.12,-76.74 466.44,-69.87"/>
<text text-anchor="middle" x="902.98" y="-106.8" font-family="Times,serif" font-size="14.00">Message</text>
</g>
<!-- ActorInitializationException -->
<g id="node29" class="node">
<title>ActorInitializationException</title>
<ellipse fill="white" stroke="blue" cx="1030.73" cy="-696" rx="85.01" ry="85.01"/>
<text text-anchor="middle" x="1030.73" y="-692.3" font-family="Times,serif" font-size="14.00">ActorInitializationException</text>
</g>
<!-- Default&#45;&gt;ActorInitializationException -->
<g id="edge31" class="edge">
<title>Default&#45;&gt;ActorInitializationException</title>
<path fill="none" stroke="black" d="M797.36,-885.82C816.95,-881.32 846.18,-872.89 868.48,-859 890.26,-845.44 930.99,-804.2 966.07,-766.61"/>
<polygon fill="black" stroke="black" points="968.76,-768.85 973,-759.14 963.63,-764.09 968.76,-768.85"/>
</g>
<!-- ActorKilledException -->
<g id="node31" class="node">
<title>ActorKilledException</title>
<ellipse fill="white" stroke="blue" cx="1030.73" cy="-865" rx="66" ry="66"/>
<text text-anchor="middle" x="1030.73" y="-861.3" font-family="Times,serif" font-size="14.00">ActorKilledException</text>
</g>
<!-- Default&#45;&gt;ActorKilledException -->
<g id="edge33" class="edge">
<title>Default&#45;&gt;ActorKilledException</title>
<path fill="none" stroke="black" d="M797.56,-887.87C832.02,-884.47 900.98,-877.68 954.83,-872.38"/>
<polygon fill="black" stroke="black" points="955.43,-875.84 965.04,-871.37 954.74,-868.87 955.43,-875.84"/>
</g>
<!-- DeathPactException -->
<g id="node32" class="node">
<title>DeathPactException</title>
<ellipse fill="white" stroke="blue" cx="1030.73" cy="-1010" rx="61.1" ry="61.1"/>
<text text-anchor="middle" x="1030.73" y="-1006.3" font-family="Times,serif" font-size="14.00">DeathPactException</text>
</g>
<!-- Default&#45;&gt;DeathPactException -->
<g id="edge35" class="edge">
<title>Default&#45;&gt;DeathPactException</title>
<path fill="none" stroke="black" d="M795.84,-899.42C832.03,-916.53 910.04,-953.41 966.02,-979.88"/>
<polygon fill="black" stroke="black" points="964.62,-983.09 975.16,-984.2 967.61,-976.76 964.62,-983.09"/>
</g>
<!-- Exception -->
<g id="node33" class="node">
<title>Exception</title>
<ellipse fill="white" stroke="blue" cx="1030.73" cy="-435" rx="30" ry="30"/>
<text text-anchor="middle" x="1030.73" y="-431.3" font-family="Times,serif" font-size="14.00">Exception</text>
</g>
<!-- Default&#45;&gt;Exception -->
<g id="edge37" class="edge">
<title>Default&#45;&gt;Exception</title>
<path fill="none" stroke="black" d="M797.51,-889.4C819.29,-887.52 851.97,-880.93 868.48,-859 884,-838.39 872.62,-652.13 878.48,-627 895.25,-555.1 894.01,-527.93 945.48,-475 958.1,-462.02 975.76,-452.75 991.66,-446.42"/>
<polygon fill="black" stroke="black" points="993.11,-449.62 1001.27,-442.86 990.68,-443.05 993.11,-449.62"/>
</g>
<!-- Other types \n of Throwable -->
<g id="node35" class="node">
<title>Other types \n of Throwable</title>
<ellipse fill="white" stroke="blue" cx="1030.73" cy="-538" rx="54.39" ry="54.39"/>
<text text-anchor="middle" x="1030.73" y="-541.8" font-family="Times,serif" font-size="14.00">Other types </text>
<text text-anchor="middle" x="1030.73" y="-526.8" font-family="Times,serif" font-size="14.00"> of Throwable</text>
</g>
<!-- Default&#45;&gt;Other types \n of Throwable -->
<g id="edge39" class="edge">
<title>Default&#45;&gt;Other types \n of Throwable</title>
<path fill="none" stroke="black" d="M797.73,-888.85C819.03,-886.5 850.76,-879.52 868.48,-859 885,-839.86 872.24,-827.5 878.48,-803 901.71,-711.74 890.65,-678.56 945.48,-602 953.57,-590.7 964.23,-580.5 975.24,-571.72"/>
<polygon fill="black" stroke="black" points="977.46,-574.43 983.29,-565.59 973.22,-568.86 977.46,-574.43"/>
</g>
<!-- Stops \n the failing \n child actor -->
<g id="node30" class="node">
<title>Stops \n the failing \n child actor</title>
<ellipse fill="white" stroke="blue" cx="1294.67" cy="-865" rx="45.01" ry="45.01"/>
<text text-anchor="middle" x="1294.67" y="-876.3" font-family="Times,serif" font-size="14.00">Stops </text>
<text text-anchor="middle" x="1294.67" y="-861.3" font-family="Times,serif" font-size="14.00"> the failing </text>
<text text-anchor="middle" x="1294.67" y="-846.3" font-family="Times,serif" font-size="14.00"> child actor</text>
</g>
<!-- ActorInitializationException&#45;&gt;Stops \n the failing \n child actor -->
<g id="edge32" class="edge">
<title>ActorInitializationException&#45;&gt;Stops \n the failing \n child actor</title>
<path fill="none" stroke="black" d="M1102.96,-741.96C1148.97,-771.64 1207.51,-809.41 1247.51,-835.22"/>
<polygon fill="black" stroke="black" points="1245.71,-838.22 1256.01,-840.7 1249.5,-832.34 1245.71,-838.22"/>
</g>
<!-- ActorKilledException&#45;&gt;Stops \n the failing \n child actor -->
<g id="edge34" class="edge">
<title>ActorKilledException&#45;&gt;Stops \n the failing \n child actor</title>
<path fill="none" stroke="black" d="M1096.82,-865C1140.54,-865 1197.5,-865 1238.9,-865"/>
<polygon fill="black" stroke="black" points="1239.07,-868.5 1249.07,-865 1239.07,-861.5 1239.07,-868.5"/>
</g>
<!-- DeathPactException&#45;&gt;Stops \n the failing \n child actor -->
<g id="edge36" class="edge">
<title>DeathPactException&#45;&gt;Stops \n the failing \n child actor</title>
<path fill="none" stroke="black" d="M1084.42,-980.83C1131.63,-954.7 1200.25,-916.72 1245.89,-891.45"/>
<polygon fill="black" stroke="black" points="1247.64,-894.48 1254.69,-886.58 1244.25,-888.36 1247.64,-894.48"/>
</g>
<!-- Restarts \n the failing \n child actor -->
<g id="node34" class="node">
<title>Restarts \n the failing \n child actor</title>
<ellipse fill="white" stroke="blue" cx="1294.67" cy="-421" rx="45.01" ry="45.01"/>
<text text-anchor="middle" x="1294.67" y="-432.3" font-family="Times,serif" font-size="14.00">Restarts </text>
<text text-anchor="middle" x="1294.67" y="-417.3" font-family="Times,serif" font-size="14.00"> the failing </text>
<text text-anchor="middle" x="1294.67" y="-402.3" font-family="Times,serif" font-size="14.00"> child actor</text>
</g>
<!-- Exception&#45;&gt;Restarts \n the failing \n child actor -->
<g id="edge38" class="edge">
<title>Exception&#45;&gt;Restarts \n the failing \n child actor</title>
<path fill="none" stroke="black" d="M1061.02,-433.43C1104.04,-431.14 1185.06,-426.81 1239.21,-423.91"/>
<polygon fill="black" stroke="black" points="1239.53,-427.4 1249.33,-423.37 1239.16,-420.41 1239.53,-427.4"/>
</g>
<!-- Escalates \n to parent actor -->
<g id="node36" class="node">
<title>Escalates \n to parent actor</title>
<ellipse fill="white" stroke="blue" cx="1294.67" cy="-543" rx="58.88" ry="58.88"/>
<text text-anchor="middle" x="1294.67" y="-546.8" font-family="Times,serif" font-size="14.00">Escalates </text>
<text text-anchor="middle" x="1294.67" y="-531.8" font-family="Times,serif" font-size="14.00"> to parent actor</text>
</g>
<!-- Other types \n of Throwable&#45;&gt;Escalates \n to parent actor -->
<g id="edge40" class="edge">
<title>Other types \n of Throwable&#45;&gt;Escalates \n to parent actor</title>
<path fill="none" stroke="black" d="M1085.37,-539.02C1125.83,-539.8 1181.64,-540.86 1225.3,-541.69"/>
<polygon fill="black" stroke="black" points="1225.49,-545.2 1235.56,-541.89 1225.62,-538.2 1225.49,-545.2"/>
</g>
<!-- Directive \n (fault handling) -->
<g id="node40" class="node">
<title>Directive \n (fault handling)</title>
<ellipse fill="white" stroke="blue" cx="774.92" cy="-315" rx="62.87" ry="62.87"/>
<text text-anchor="middle" x="774.92" y="-318.8" font-family="Times,serif" font-size="14.00">Directive </text>
<text text-anchor="middle" x="774.92" y="-303.8" font-family="Times,serif" font-size="14.00"> (fault handling)</text>
</g>
<!-- Stop -->
<g id="node41" class="node">
<title>Stop</title>
<ellipse fill="white" stroke="blue" cx="1030.73" cy="-315" rx="18" ry="18"/>
<text text-anchor="middle" x="1030.73" y="-311.3" font-family="Times,serif" font-size="14.00">Stop</text>
</g>
<!-- Directive \n (fault handling)&#45;&gt;Stop -->
<g id="edge44" class="edge">
<title>Directive \n (fault handling)&#45;&gt;Stop</title>
<path fill="none" stroke="black" d="M838.01,-315C890.59,-315 963.48,-315 1002.49,-315"/>
<polygon fill="black" stroke="black" points="1002.55,-318.5 1012.55,-315 1002.55,-311.5 1002.55,-318.5"/>
</g>
<!-- Start -->
<g id="node42" class="node">
<title>Start</title>
<ellipse fill="white" stroke="blue" cx="1030.73" cy="-369" rx="18" ry="18"/>
<text text-anchor="middle" x="1030.73" y="-365.3" font-family="Times,serif" font-size="14.00">Start</text>
</g>
<!-- Directive \n (fault handling)&#45;&gt;Start -->
<g id="edge45" class="edge">
<title>Directive \n (fault handling)&#45;&gt;Start</title>
<path fill="none" stroke="black" d="M836.71,-327.93C889.64,-339.2 963.86,-354.99 1003.05,-363.32"/>
<polygon fill="black" stroke="black" points="1002.4,-366.76 1012.91,-365.42 1003.86,-359.92 1002.4,-366.76"/>
</g>
<!-- Resume -->
<g id="node43" class="node">
<title>Resume</title>
<ellipse fill="white" stroke="blue" cx="1030.73" cy="-254" rx="24.5" ry="24.5"/>
<text text-anchor="middle" x="1030.73" y="-250.3" font-family="Times,serif" font-size="14.00">Resume</text>
</g>
<!-- Directive \n (fault handling)&#45;&gt;Resume -->
<g id="edge46" class="edge">
<title>Directive \n (fault handling)&#45;&gt;Resume</title>
<path fill="none" stroke="black" d="M836.39,-300.47C886.57,-288.41 956.04,-271.71 996.6,-261.96"/>
<polygon fill="black" stroke="black" points="997.6,-265.32 1006.5,-259.58 995.96,-258.52 997.6,-265.32"/>
</g>
<!-- Decider -->
<g id="node44" class="node">
<title>Decider</title>
<ellipse fill="white" stroke="blue" cx="1294.67" cy="-315" rx="23.8" ry="23.8"/>
<text text-anchor="middle" x="1294.67" y="-311.3" font-family="Times,serif" font-size="14.00">Decider</text>
</g>
<!-- Stop&#45;&gt;Decider -->
<g id="edge47" class="edge">
<title>Stop&#45;&gt;Decider</title>
<path fill="none" stroke="black" d="M1048.92,-315C1091.9,-315 1204.64,-315 1260.84,-315"/>
<polygon fill="black" stroke="black" points="1260.97,-318.5 1270.97,-315 1260.97,-311.5 1260.97,-318.5"/>
<text text-anchor="middle" x="1175.98" y="-318.8" font-family="Times,serif" font-size="14.00">specified in the</text>
</g>
<!-- Start&#45;&gt;Decider -->
<g id="edge48" class="edge">
<title>Start&#45;&gt;Decider</title>
<path fill="none" stroke="black" d="M1048.75,-366.16C1081.59,-360.59 1155.96,-347.6 1217.98,-334 1232.43,-330.83 1248.32,-326.91 1261.8,-323.45"/>
<polygon fill="black" stroke="black" points="1262.77,-326.82 1271.57,-320.92 1261.01,-320.04 1262.77,-326.82"/>
<text text-anchor="middle" x="1175.98" y="-353.8" font-family="Times,serif" font-size="14.00">specified in the</text>
</g>
<!-- Resume&#45;&gt;Decider -->
<g id="edge49" class="edge">
<title>Resume&#45;&gt;Decider</title>
<path fill="none" stroke="black" d="M1055,-259.06C1090.3,-266.77 1159.46,-282.06 1217.98,-296 1232.37,-299.43 1248.25,-303.39 1261.74,-306.8"/>
<polygon fill="black" stroke="black" points="1260.96,-310.22 1271.52,-309.29 1262.69,-303.43 1260.96,-310.22"/>
<text text-anchor="middle" x="1175.98" y="-299.8" font-family="Times,serif" font-size="14.00">specified in the</text>
</g>
</g>
</svg>
